<svg xmlns="http://www.w3.org/2000/svg" xmlns:xlink="http://www.w3.org/1999/xlink" width="500" zoomAndPan="magnify" viewBox="0 0 375 374.999991" height="500" preserveAspectRatio="xMidYMid meet" version="1.0"><defs><g/><clipPath id="1b0f595b38"><path d="M 129 126.375 L 246 126.375 L 246 242 L 129 242 Z M 129 126.375 " clip-rule="nonzero"/></clipPath><clipPath id="fbf31605fd"><path d="M 112.5 227.664062 L 262.488281 227.664062 L 262.488281 248.605469 L 112.5 248.605469 Z M 112.5 227.664062 " clip-rule="nonzero"/></clipPath></defs><g clip-path="url(#1b0f595b38)"><path fill="#0062bd" d="M 245.050781 183.949219 C 245.050781 152.160156 219.28125 126.390625 187.492188 126.390625 C 155.707031 126.390625 129.933594 152.160156 129.933594 183.949219 C 129.933594 215.738281 155.707031 241.507812 187.492188 241.507812 C 219.28125 241.507812 245.050781 215.738281 245.050781 183.949219 " fill-opacity="1" fill-rule="nonzero"/></g><g clip-path="url(#fbf31605fd)"><path fill="#000000" d="M 262.484375 238.140625 C 262.484375 232.363281 228.910156 227.675781 187.492188 227.675781 C 146.078125 227.675781 112.5 232.363281 112.5 238.140625 C 112.5 243.921875 146.078125 248.605469 187.492188 248.605469 C 228.910156 248.605469 262.484375 243.921875 262.484375 238.140625 " fill-opacity="1" fill-rule="nonzero"/></g><path fill="#d9c55d" d="M 254.859375 224.949219 L 251.320312 224.949219 L 246.257812 213.414062 L 242.714844 213.414062 L 237.652344 201.878906 L 234.113281 201.878906 L 229.050781 190.34375 L 225.511719 190.34375 L 220.445312 178.808594 L 216.90625 178.808594 L 211.84375 167.269531 L 203.976562 167.269531 L 203.976562 157.363281 L 207.300781 157.363281 L 207.300781 153.917969 L 173.953125 153.917969 L 173.953125 157.363281 L 177.28125 157.363281 L 177.28125 167.269531 L 169.414062 167.269531 L 164.351562 178.808594 L 160.808594 178.808594 L 155.746094 190.34375 L 152.207031 190.34375 L 147.144531 201.878906 L 143.605469 201.878906 L 138.542969 213.414062 L 135.003906 213.414062 L 129.9375 224.949219 L 126.398438 224.949219 L 121.335938 236.480469 L 259.921875 236.480469 L 254.859375 224.949219 " fill-opacity="1" fill-rule="nonzero"/><path fill="#282b53" d="M 119.878906 235.386719 L 163.398438 235.386719 L 165.089844 226.042969 L 123.980469 226.042969 Z M 164.316406 237.578125 L 118.199219 237.578125 C 117.828125 237.578125 117.484375 237.390625 117.28125 237.082031 C 117.078125 236.773438 117.046875 236.378906 117.195312 236.042969 L 122.257812 224.507812 C 122.433594 224.105469 122.828125 223.851562 123.265625 223.851562 L 166.402344 223.851562 C 166.730469 223.851562 167.039062 223.996094 167.246094 224.246094 C 167.453125 224.496094 167.542969 224.824219 167.484375 225.144531 L 165.394531 236.679688 C 165.300781 237.199219 164.84375 237.578125 164.316406 237.578125 " fill-opacity="1" fill-rule="nonzero"/><path fill="#282b53" d="M 211.589844 235.386719 L 255.105469 235.386719 L 251.007812 226.042969 L 209.898438 226.042969 Z M 256.785156 237.578125 L 210.671875 237.578125 C 210.140625 237.578125 209.6875 237.199219 209.59375 236.679688 L 207.503906 225.144531 C 207.445312 224.824219 207.53125 224.496094 207.742188 224.246094 C 207.949219 223.996094 208.257812 223.851562 208.582031 223.851562 L 251.722656 223.851562 C 252.15625 223.851562 252.554688 224.105469 252.726562 224.507812 L 257.792969 236.042969 C 257.941406 236.378906 257.910156 236.773438 257.707031 237.082031 C 257.503906 237.390625 257.15625 237.578125 256.785156 237.578125 " fill-opacity="1" fill-rule="nonzero"/><path fill="#282b53" d="M 128.484375 223.851562 L 165.488281 223.851562 L 167.179688 214.507812 L 132.585938 214.507812 Z M 166.402344 226.042969 L 126.804688 226.042969 C 126.433594 226.042969 126.085938 225.855469 125.882812 225.546875 C 125.679688 225.238281 125.648438 224.84375 125.796875 224.507812 L 130.863281 212.972656 C 131.039062 212.570312 131.433594 212.316406 131.867188 212.316406 L 168.492188 212.316406 C 168.816406 212.316406 169.125 212.460938 169.335938 212.710938 C 169.542969 212.957031 169.628906 213.289062 169.570312 213.605469 L 167.484375 225.140625 C 167.390625 225.664062 166.933594 226.042969 166.402344 226.042969 " fill-opacity="1" fill-rule="nonzero"/><path fill="#282b53" d="M 209.5 223.851562 L 246.503906 223.851562 L 242.402344 214.507812 L 207.808594 214.507812 Z M 248.183594 226.042969 L 208.582031 226.042969 C 208.050781 226.042969 207.597656 225.664062 207.503906 225.140625 L 205.414062 213.605469 C 205.355469 213.289062 205.445312 212.957031 205.652344 212.710938 C 205.859375 212.460938 206.167969 212.316406 206.496094 212.316406 L 243.121094 212.316406 C 243.554688 212.316406 243.949219 212.570312 244.125 212.972656 L 249.1875 224.507812 C 249.335938 224.84375 249.304688 225.238281 249.101562 225.546875 C 248.898438 225.855469 248.554688 226.042969 248.183594 226.042969 " fill-opacity="1" fill-rule="nonzero"/><path fill="#282b53" d="M 137.085938 212.316406 L 167.574219 212.316406 L 169.269531 202.976562 L 141.1875 202.976562 Z M 168.492188 214.507812 L 135.40625 214.507812 C 135.035156 214.507812 134.6875 214.324219 134.484375 214.011719 C 134.285156 213.703125 134.253906 213.3125 134.402344 212.972656 L 139.464844 201.4375 C 139.640625 201.035156 140.03125 200.78125 140.46875 200.78125 L 170.582031 200.78125 C 170.90625 200.78125 171.214844 200.925781 171.425781 201.175781 C 171.632812 201.421875 171.71875 201.753906 171.660156 202.074219 L 169.570312 213.605469 C 169.476562 214.128906 169.023438 214.507812 168.492188 214.507812 " fill-opacity="1" fill-rule="nonzero"/><path fill="#282b53" d="M 207.410156 212.316406 L 237.902344 212.316406 L 233.800781 202.976562 L 205.71875 202.976562 Z M 239.582031 214.507812 L 206.496094 214.507812 C 205.964844 214.507812 205.507812 214.128906 205.414062 213.605469 L 203.324219 202.074219 C 203.265625 201.753906 203.355469 201.421875 203.5625 201.175781 C 203.769531 200.925781 204.078125 200.78125 204.402344 200.78125 L 234.515625 200.78125 C 234.953125 200.78125 235.347656 201.035156 235.519531 201.4375 L 240.585938 212.972656 C 240.734375 213.3125 240.703125 213.703125 240.5 214.011719 C 240.296875 214.324219 239.953125 214.507812 239.582031 214.507812 " fill-opacity="1" fill-rule="nonzero"/><path fill="#282b53" d="M 145.6875 200.78125 L 169.664062 200.78125 L 171.355469 191.441406 L 149.789062 191.441406 Z M 170.582031 202.976562 L 144.007812 202.976562 C 143.640625 202.976562 143.292969 202.789062 143.089844 202.476562 C 142.886719 202.167969 142.855469 201.777344 143.003906 201.4375 L 148.066406 189.898438 C 148.242188 189.503906 148.636719 189.246094 149.074219 189.246094 L 172.671875 189.246094 C 172.996094 189.246094 173.304688 189.386719 173.515625 189.636719 C 173.722656 189.886719 173.808594 190.21875 173.75 190.535156 L 171.660156 202.074219 C 171.566406 202.59375 171.113281 202.976562 170.582031 202.976562 " fill-opacity="1" fill-rule="nonzero"/><path fill="#282b53" d="M 205.320312 200.78125 L 229.296875 200.78125 L 225.195312 191.441406 L 203.628906 191.441406 Z M 230.976562 202.976562 L 204.402344 202.976562 C 203.875 202.976562 203.417969 202.59375 203.324219 202.074219 L 201.234375 190.535156 C 201.175781 190.21875 201.265625 189.886719 201.472656 189.636719 C 201.679688 189.386719 201.988281 189.246094 202.316406 189.246094 L 225.914062 189.246094 C 226.347656 189.246094 226.742188 189.503906 226.917969 189.898438 L 231.984375 201.4375 C 232.132812 201.777344 232.097656 202.167969 231.898438 202.476562 C 231.695312 202.789062 231.347656 202.976562 230.976562 202.976562 " fill-opacity="1" fill-rule="nonzero"/><path fill="#282b53" d="M 154.292969 189.246094 L 171.753906 189.246094 L 173.445312 179.90625 L 158.394531 179.90625 Z M 172.671875 191.441406 L 152.613281 191.441406 C 152.242188 191.441406 151.894531 191.253906 151.691406 190.941406 C 151.488281 190.632812 151.457031 190.238281 151.605469 189.898438 L 156.671875 178.367188 C 156.847656 177.96875 157.238281 177.710938 157.675781 177.710938 L 174.757812 177.710938 C 175.085938 177.710938 175.394531 177.855469 175.601562 178.105469 C 175.808594 178.355469 175.898438 178.683594 175.839844 179.003906 L 173.75 190.535156 C 173.65625 191.058594 173.203125 191.441406 172.671875 191.441406 " fill-opacity="1" fill-rule="nonzero"/><path fill="#282b53" d="M 203.230469 189.246094 L 220.695312 189.246094 L 216.59375 179.90625 L 201.539062 179.90625 Z M 222.375 191.441406 L 202.316406 191.441406 C 201.785156 191.441406 201.328125 191.058594 201.234375 190.535156 L 199.148438 179.003906 C 199.089844 178.683594 199.175781 178.355469 199.382812 178.105469 C 199.59375 177.855469 199.902344 177.710938 200.226562 177.710938 L 217.3125 177.710938 C 217.746094 177.710938 218.140625 177.96875 218.316406 178.367188 L 223.378906 189.898438 C 223.527344 190.238281 223.496094 190.632812 223.292969 190.941406 C 223.09375 191.253906 222.746094 191.441406 222.375 191.441406 " fill-opacity="1" fill-rule="nonzero"/><path fill="#282b53" d="M 162.894531 177.710938 L 173.84375 177.710938 L 175.535156 168.367188 L 166.996094 168.367188 Z M 174.757812 179.90625 L 161.214844 179.90625 C 160.84375 179.90625 160.5 179.71875 160.296875 179.410156 C 160.09375 179.097656 160.0625 178.707031 160.210938 178.367188 L 165.273438 166.828125 C 165.449219 166.433594 165.84375 166.171875 166.277344 166.171875 L 176.847656 166.171875 C 177.175781 166.171875 177.484375 166.316406 177.691406 166.566406 C 177.902344 166.816406 177.988281 167.148438 177.929688 167.46875 L 175.839844 179.003906 C 175.746094 179.527344 175.292969 179.90625 174.757812 179.90625 " fill-opacity="1" fill-rule="nonzero"/><path fill="#282b53" d="M 201.144531 177.710938 L 212.09375 177.710938 L 207.992188 168.367188 L 199.453125 168.367188 Z M 213.769531 179.90625 L 200.226562 179.90625 C 199.695312 179.90625 199.242188 179.527344 199.148438 179.003906 L 197.058594 167.46875 C 197 167.148438 197.085938 166.816406 197.292969 166.566406 C 197.503906 166.316406 197.8125 166.171875 198.136719 166.171875 L 208.707031 166.171875 C 209.144531 166.171875 209.539062 166.433594 209.710938 166.828125 L 214.777344 178.367188 C 214.925781 178.707031 214.894531 179.097656 214.691406 179.410156 C 214.488281 179.71875 214.140625 179.90625 213.769531 179.90625 " fill-opacity="1" fill-rule="nonzero"/><path fill="#282b53" d="M 175.242188 166.175781 L 199.742188 166.175781 L 199.742188 158.460938 L 175.242188 158.460938 Z M 200.839844 168.371094 L 174.144531 168.371094 C 173.539062 168.371094 173.046875 167.878906 173.046875 167.273438 L 173.046875 157.363281 C 173.046875 156.757812 173.539062 156.265625 174.144531 156.265625 L 200.839844 156.265625 C 201.445312 156.265625 201.9375 156.757812 201.9375 157.363281 L 201.9375 167.273438 C 201.9375 167.878906 201.445312 168.371094 200.839844 168.371094 " fill-opacity="1" fill-rule="nonzero"/><path fill="#282b53" d="M 171.917969 156.265625 L 203.070312 156.265625 L 203.070312 155.015625 L 171.917969 155.015625 Z M 204.167969 158.460938 L 170.820312 158.460938 C 170.214844 158.460938 169.722656 157.96875 169.722656 157.363281 L 169.722656 153.917969 C 169.722656 153.3125 170.214844 152.820312 170.820312 152.820312 L 204.167969 152.820312 C 204.773438 152.820312 205.265625 153.3125 205.265625 153.917969 L 205.265625 157.363281 C 205.265625 157.96875 204.773438 158.460938 204.167969 158.460938 " fill-opacity="1" fill-rule="nonzero"/><path fill="#282b53" d="M 165.628906 235.386719 L 209.359375 235.386719 L 197.222656 168.367188 L 177.765625 168.367188 Z M 210.671875 237.578125 L 164.316406 237.578125 C 163.988281 237.578125 163.679688 237.433594 163.472656 237.183594 C 163.261719 236.9375 163.175781 236.605469 163.234375 236.285156 L 175.769531 167.078125 C 175.863281 166.554688 176.320312 166.171875 176.847656 166.171875 L 198.136719 166.171875 C 198.667969 166.171875 199.121094 166.554688 199.21875 167.078125 L 211.753906 236.285156 C 211.808594 236.605469 211.722656 236.9375 211.515625 237.183594 C 211.308594 237.433594 210.996094 237.578125 210.671875 237.578125 " fill-opacity="1" fill-rule="nonzero"/><path fill="#282b53" d="M 173.671875 235.386719 L 201.316406 235.386719 L 200.789062 230.886719 C 200.785156 230.871094 200.78125 230.855469 200.78125 230.839844 L 200.101562 225.074219 C 200.101562 225.070312 200.101562 225.0625 200.101562 225.054688 L 199.425781 219.308594 C 199.425781 219.300781 199.421875 219.296875 199.421875 219.289062 L 198.746094 213.539062 C 198.746094 213.535156 198.746094 213.527344 198.742188 213.519531 L 198.066406 207.773438 C 198.066406 207.765625 198.066406 207.757812 198.066406 207.75 L 196.710938 196.238281 C 196.707031 196.234375 196.707031 196.226562 196.707031 196.21875 L 196.03125 190.472656 C 196.03125 190.464844 196.03125 190.457031 196.03125 190.449219 L 195.351562 184.703125 C 195.351562 184.695312 195.351562 184.691406 195.351562 184.683594 L 194.675781 178.9375 C 194.675781 178.929688 194.671875 178.921875 194.671875 178.917969 L 194.003906 173.21875 C 194 173.203125 193.996094 173.183594 193.996094 173.167969 L 193.429688 168.367188 L 181.554688 168.367188 L 180.992188 173.167969 C 180.988281 173.183594 180.988281 173.203125 180.984375 173.21875 L 180.3125 178.917969 C 180.3125 178.921875 180.3125 178.929688 180.3125 178.9375 L 179.636719 184.683594 C 179.636719 184.691406 179.632812 184.695312 179.632812 184.703125 L 178.957031 190.453125 C 178.957031 190.457031 178.953125 190.464844 178.953125 190.472656 L 178.277344 196.21875 C 178.277344 196.226562 178.277344 196.234375 178.277344 196.238281 L 176.921875 207.753906 C 176.921875 207.757812 176.921875 207.765625 176.917969 207.773438 L 176.242188 213.519531 C 176.242188 213.527344 176.242188 213.535156 176.242188 213.539062 L 175.5625 219.289062 C 175.5625 219.296875 175.5625 219.300781 175.5625 219.308594 L 174.886719 225.054688 C 174.886719 225.0625 174.882812 225.070312 174.882812 225.074219 L 174.207031 230.839844 C 174.203125 230.855469 174.199219 230.871094 174.199219 230.886719 Z M 202.550781 237.578125 L 172.4375 237.578125 C 172.125 237.578125 171.824219 237.445312 171.617188 237.210938 C 171.410156 236.976562 171.308594 236.664062 171.347656 236.355469 L 172.023438 230.585938 C 172.027344 230.570312 172.027344 230.554688 172.03125 230.539062 L 172.703125 224.839844 C 172.703125 224.832031 172.703125 224.824219 172.703125 224.816406 L 173.378906 219.070312 C 173.378906 219.0625 173.382812 219.054688 173.382812 219.050781 L 174.058594 213.300781 C 174.058594 213.292969 174.058594 213.289062 174.0625 213.28125 L 174.734375 207.535156 C 174.738281 207.527344 174.738281 207.519531 174.738281 207.515625 L 176.09375 196 C 176.09375 195.992188 176.097656 195.988281 176.097656 195.980469 L 176.773438 190.234375 C 176.773438 190.226562 176.773438 190.21875 176.773438 190.214844 L 177.453125 184.46875 C 177.453125 184.460938 177.453125 184.453125 177.453125 184.445312 L 178.128906 178.699219 C 178.128906 178.691406 178.132812 178.683594 178.132812 178.679688 L 178.808594 172.914062 C 178.8125 172.894531 178.816406 172.875 178.816406 172.859375 L 179.488281 167.144531 C 179.554688 166.589844 180.023438 166.171875 180.578125 166.171875 L 194.40625 166.171875 C 194.964844 166.171875 195.433594 166.589844 195.496094 167.144531 L 196.167969 172.859375 C 196.171875 172.878906 196.175781 172.894531 196.175781 172.914062 L 196.855469 178.679688 C 196.855469 178.683594 196.855469 178.691406 196.855469 178.699219 L 197.53125 184.445312 C 197.53125 184.453125 197.535156 184.460938 197.535156 184.46875 L 198.210938 190.214844 C 198.214844 190.21875 198.214844 190.226562 198.214844 190.234375 L 198.890625 195.980469 C 198.890625 195.988281 198.890625 195.996094 198.890625 196 L 200.246094 207.515625 C 200.25 207.523438 200.25 207.527344 200.25 207.535156 L 200.925781 213.28125 C 200.925781 213.289062 200.925781 213.296875 200.925781 213.300781 L 201.605469 219.050781 C 201.605469 219.054688 201.605469 219.0625 201.605469 219.070312 L 202.28125 224.816406 C 202.28125 224.824219 202.285156 224.832031 202.285156 224.839844 L 202.957031 230.539062 C 202.957031 230.554688 202.960938 230.570312 202.960938 230.585938 L 203.640625 236.355469 C 203.675781 236.664062 203.578125 236.976562 203.371094 237.210938 C 203.160156 237.445312 202.863281 237.578125 202.550781 237.578125 " fill-opacity="1" fill-rule="nonzero"/><path fill="#282b53" d="M 185.753906 166.175781 L 189.230469 166.175781 L 189.230469 160.71875 L 185.753906 160.71875 Z M 190.328125 168.371094 L 184.660156 168.371094 C 184.050781 168.371094 183.5625 167.878906 183.5625 167.273438 L 183.5625 159.621094 C 183.5625 159.015625 184.050781 158.523438 184.660156 158.523438 L 190.328125 158.523438 C 190.933594 158.523438 191.425781 159.015625 191.425781 159.621094 L 191.425781 167.273438 C 191.425781 167.878906 190.933594 168.371094 190.328125 168.371094 " fill-opacity="1" fill-rule="nonzero"/><path fill="#282b53" d="M 173.671875 235.386719 L 201.316406 235.386719 L 200.894531 231.8125 L 174.089844 231.8125 Z M 202.550781 237.578125 L 172.4375 237.578125 C 172.125 237.578125 171.824219 237.445312 171.617188 237.210938 C 171.410156 236.976562 171.308594 236.664062 171.347656 236.355469 L 172.023438 230.585938 C 172.042969 230.414062 172.105469 230.25 172.199219 230.105469 C 172.40625 229.800781 172.75 229.617188 173.117188 229.617188 L 201.871094 229.617188 C 202.238281 229.617188 202.582031 229.796875 202.785156 230.105469 C 202.878906 230.25 202.941406 230.414062 202.960938 230.585938 L 203.640625 236.355469 C 203.675781 236.664062 203.578125 236.976562 203.371094 237.210938 C 203.160156 237.445312 202.863281 237.578125 202.550781 237.578125 " fill-opacity="1" fill-rule="nonzero"/><path fill="#282b53" d="M 201.191406 224.949219 L 201.195312 224.949219 Z M 174.351562 229.617188 L 200.636719 229.617188 L 200.214844 226.042969 L 174.769531 226.042969 Z M 201.871094 231.8125 L 173.113281 231.8125 C 172.710938 231.8125 172.339844 231.589844 172.148438 231.234375 C 172.03125 231.015625 171.992188 230.773438 172.03125 230.539062 L 172.703125 224.832031 C 172.757812 224.28125 173.226562 223.847656 173.792969 223.847656 L 201.191406 223.847656 C 201.761719 223.847656 202.234375 224.285156 202.285156 224.84375 L 202.960938 230.5625 C 202.988281 230.789062 202.949219 231.023438 202.839844 231.230469 C 202.648438 231.589844 202.277344 231.8125 201.871094 231.8125 " fill-opacity="1" fill-rule="nonzero"/><path fill="#282b53" d="M 200.515625 219.179688 L 200.519531 219.179688 Z M 175.027344 223.851562 L 199.957031 223.851562 L 199.539062 220.277344 L 175.449219 220.277344 Z M 173.792969 224.945312 L 173.796875 224.945312 Z M 201.191406 226.042969 L 173.792969 226.042969 C 173.1875 226.042969 172.695312 225.554688 172.695312 224.949219 C 172.695312 224.90625 172.699219 224.859375 172.703125 224.816406 L 173.378906 219.066406 C 173.4375 218.511719 173.90625 218.082031 174.472656 218.082031 L 200.515625 218.082031 C 201.085938 218.082031 201.554688 218.515625 201.605469 219.074219 L 202.28125 224.816406 C 202.289062 224.859375 202.289062 224.902344 202.289062 224.945312 L 202.289062 224.949219 C 202.289062 225.554688 201.800781 226.042969 201.191406 226.042969 " fill-opacity="1" fill-rule="nonzero"/><path fill="#282b53" d="M 199.835938 213.414062 L 199.839844 213.414062 Z M 175.707031 218.082031 L 199.28125 218.082031 L 198.859375 214.507812 L 176.128906 214.507812 Z M 174.472656 219.179688 L 174.476562 219.179688 Z M 200.515625 220.277344 L 174.472656 220.277344 C 173.867188 220.277344 173.375 219.785156 173.375 219.179688 C 173.375 219.136719 173.375 219.089844 173.382812 219.050781 L 174.058594 213.296875 C 174.117188 212.746094 174.585938 212.3125 175.152344 212.3125 L 199.835938 212.3125 C 200.40625 212.3125 200.875 212.75 200.929688 213.304688 L 201.605469 219.050781 C 201.609375 219.089844 201.613281 219.136719 201.613281 219.179688 C 201.613281 219.785156 201.121094 220.277344 200.515625 220.277344 " fill-opacity="1" fill-rule="nonzero"/><path fill="#282b53" d="M 199.15625 207.644531 L 199.160156 207.644531 Z M 176.386719 212.316406 L 198.601562 212.316406 L 198.179688 208.738281 L 176.804688 208.738281 Z M 175.152344 213.410156 Z M 199.835938 214.507812 L 175.152344 214.507812 C 174.546875 214.507812 174.054688 214.019531 174.054688 213.414062 C 174.054688 213.371094 174.054688 213.324219 174.0625 213.28125 L 174.738281 207.53125 C 174.796875 206.976562 175.261719 206.546875 175.828125 206.546875 L 199.15625 206.546875 C 199.730469 206.546875 200.199219 206.980469 200.25 207.539062 L 200.925781 213.28125 C 200.929688 213.324219 200.933594 213.367188 200.933594 213.410156 L 200.933594 213.414062 C 200.933594 214.019531 200.441406 214.507812 199.835938 214.507812 " fill-opacity="1" fill-rule="nonzero"/><path fill="#282b53" d="M 177.0625 206.546875 L 197.925781 206.546875 L 197.503906 202.976562 L 177.484375 202.976562 Z M 175.828125 207.640625 L 175.832031 207.640625 Z M 199.15625 208.742188 L 175.828125 208.742188 C 175.222656 208.742188 174.730469 208.25 174.730469 207.644531 C 174.730469 207.601562 174.734375 207.554688 174.738281 207.515625 L 175.417969 201.75 C 175.484375 201.195312 175.953125 200.78125 176.507812 200.78125 L 198.480469 200.78125 C 199.035156 200.78125 199.503906 201.195312 199.570312 201.75 L 200.246094 207.515625 C 200.253906 207.554688 200.253906 207.597656 200.253906 207.640625 L 200.253906 207.644531 C 200.253906 208.25 199.761719 208.742188 199.15625 208.742188 " fill-opacity="1" fill-rule="nonzero"/><path fill="#282b53" d="M 197.800781 196.109375 Z M 177.742188 200.78125 L 197.246094 200.78125 L 196.824219 197.207031 L 178.164062 197.207031 Z M 198.480469 202.976562 L 176.507812 202.976562 C 176.195312 202.976562 175.894531 202.839844 175.6875 202.605469 C 175.480469 202.371094 175.382812 202.058594 175.417969 201.75 L 176.09375 195.996094 C 176.152344 195.445312 176.617188 195.011719 177.1875 195.011719 L 197.800781 195.011719 C 198.371094 195.011719 198.839844 195.445312 198.894531 196.003906 L 199.570312 201.75 C 199.605469 202.058594 199.507812 202.371094 199.300781 202.605469 C 199.089844 202.839844 198.792969 202.976562 198.480469 202.976562 " fill-opacity="1" fill-rule="nonzero"/><path fill="#282b53" d="M 197.121094 190.34375 L 197.125 190.34375 Z M 178.421875 195.011719 L 196.566406 195.011719 L 196.144531 191.441406 L 178.839844 191.441406 Z M 177.1875 196.109375 L 177.191406 196.109375 Z M 197.800781 197.207031 L 177.1875 197.207031 C 176.582031 197.207031 176.089844 196.71875 176.089844 196.109375 C 176.089844 196.066406 176.089844 196.023438 176.097656 195.980469 L 176.773438 190.230469 C 176.828125 189.675781 177.296875 189.246094 177.863281 189.246094 L 197.121094 189.246094 C 197.695312 189.246094 198.164062 189.679688 198.214844 190.238281 L 198.890625 195.980469 C 198.894531 196.023438 198.898438 196.066406 198.898438 196.109375 C 198.898438 196.71875 198.40625 197.207031 197.800781 197.207031 " fill-opacity="1" fill-rule="nonzero"/><path fill="#282b53" d="M 196.441406 184.574219 L 196.445312 184.574219 Z M 179.097656 189.246094 L 195.886719 189.246094 L 195.46875 185.671875 L 179.519531 185.671875 Z M 177.863281 190.34375 L 177.867188 190.34375 Z M 197.121094 191.441406 L 177.863281 191.441406 C 177.257812 191.441406 176.765625 190.949219 176.765625 190.34375 C 176.765625 190.300781 176.769531 190.257812 176.773438 190.214844 L 177.453125 184.460938 C 177.507812 183.910156 177.976562 183.476562 178.542969 183.476562 L 196.441406 183.476562 C 197.015625 183.476562 197.484375 183.914062 197.535156 184.46875 L 198.210938 190.214844 C 198.21875 190.257812 198.21875 190.296875 198.21875 190.34375 C 198.21875 190.949219 197.726562 191.441406 197.121094 191.441406 " fill-opacity="1" fill-rule="nonzero"/><path fill="#282b53" d="M 195.765625 178.808594 L 195.769531 178.808594 Z M 179.777344 183.480469 L 195.207031 183.480469 L 194.789062 179.90625 L 180.199219 179.90625 Z M 178.542969 184.574219 L 178.546875 184.574219 Z M 196.441406 185.671875 L 178.542969 185.671875 C 177.9375 185.671875 177.445312 185.183594 177.445312 184.574219 C 177.445312 184.53125 177.449219 184.488281 177.453125 184.445312 L 178.128906 178.695312 C 178.1875 178.140625 178.65625 177.710938 179.222656 177.710938 L 195.765625 177.710938 C 196.335938 177.710938 196.804688 178.144531 196.855469 178.703125 L 197.53125 184.445312 C 197.539062 184.488281 197.539062 184.53125 197.539062 184.574219 C 197.539062 185.183594 197.046875 185.671875 196.441406 185.671875 " fill-opacity="1" fill-rule="nonzero"/><path fill="#282b53" d="M 180.453125 177.710938 L 194.53125 177.710938 L 194.109375 174.136719 L 180.875 174.136719 Z M 179.222656 178.808594 L 179.226562 178.808594 Z M 195.765625 179.90625 L 179.222656 179.90625 C 178.613281 179.90625 178.125 179.414062 178.125 178.808594 C 178.125 178.765625 178.125 178.722656 178.132812 178.679688 L 178.808594 172.914062 C 178.835938 172.703125 178.921875 172.503906 179.054688 172.335938 C 179.265625 172.089844 179.574219 171.941406 179.902344 171.941406 L 195.085938 171.941406 C 195.410156 171.941406 195.71875 172.085938 195.929688 172.335938 C 196.066406 172.5 196.152344 172.703125 196.175781 172.914062 L 196.855469 178.679688 C 196.859375 178.722656 196.863281 178.761719 196.863281 178.808594 C 196.863281 179.414062 196.371094 179.90625 195.765625 179.90625 " fill-opacity="1" fill-rule="nonzero"/><path fill="#282b53" d="M 181.132812 171.945312 L 193.851562 171.945312 L 193.429688 168.367188 L 181.554688 168.367188 Z M 195.085938 174.136719 L 179.898438 174.136719 C 179.472656 174.136719 179.085938 173.890625 178.90625 173.507812 C 178.808594 173.300781 178.78125 173.074219 178.816406 172.859375 L 179.488281 167.144531 C 179.554688 166.589844 180.023438 166.171875 180.578125 166.171875 L 194.40625 166.171875 C 194.964844 166.171875 195.433594 166.589844 195.496094 167.144531 L 196.171875 172.886719 C 196.203125 173.09375 196.171875 173.308594 196.078125 173.503906 C 195.898438 173.890625 195.511719 174.136719 195.085938 174.136719 " fill-opacity="1" fill-rule="nonzero"/><g fill="#ffffff" fill-opacity="1"><g transform="translate(125.000005, 261.649377)"><g><path d="M 3.414062 -12.773438 L 0.230469 0 L 3.070312 0 L 3.675781 -2.746094 L 6.796875 -2.746094 L 7.417969 0 L 10.242188 0 L 7.058594 -12.773438 Z M 5.226562 -9.71875 L 6.273438 -5.03125 L 4.183594 -5.03125 Z M 5.226562 -9.71875 "/></g></g></g><g fill="#ffffff" fill-opacity="1"><g transform="translate(137.424829, 261.649377)"><g><path d="M 9.492188 0.03125 L 12.886719 0.03125 L 14.996094 -12.742188 L 12.234375 -12.742188 L 11.011719 -3.578125 L 9.292969 -12.742188 L 6.011719 -12.742188 L 4.296875 -3.578125 L 3.070312 -12.742188 L 0.308594 -12.742188 L 2.417969 0.03125 L 5.800781 0.03125 L 7.644531 -9.71875 Z M 9.492188 0.03125 "/></g></g></g><g fill="#ffffff" fill-opacity="1"><g transform="translate(154.681645, 261.649377)"><g><path d="M 10.242188 -12.742188 L 7.726562 -12.742188 L 7.726562 -7.398438 L 7.808594 -4.835938 L 3.707031 -12.742188 L 0.914062 -12.742188 L 0.914062 0 L 3.414062 0 L 3.414062 -5.339844 L 3.332031 -7.90625 L 7.449219 0 L 10.242188 0 Z M 10.242188 -12.742188 "/></g></g></g><g fill="#ffffff" fill-opacity="1"><g transform="translate(167.792096, 261.649377)"><g><path d="M 3.644531 -12.742188 L 0.996094 -12.742188 L 0.996094 0 L 3.644531 0 Z M 3.644531 -12.742188 "/></g></g></g><g fill="#ffffff" fill-opacity="1"><g transform="translate(174.372835, 261.649377)"><g><path d="M 8.265625 0 L 8.265625 -2.285156 L 3.5625 -2.285156 L 3.5625 -12.742188 L 0.914062 -12.742188 L 0.914062 0 Z M 8.265625 0 "/></g></g></g><g fill="#ffffff" fill-opacity="1"><g transform="translate(184.838753, 261.649377)"><g/></g></g><g fill="#ffffff" fill-opacity="1"><g transform="translate(190.064583, 261.649377)"><g><path d="M 10.714844 -8.152344 L 10.652344 -5.601562 L 10.652344 0 L 13.296875 0 L 13.296875 -12.742188 L 9.375 -12.742188 L 7.105469 -4.589844 L 4.820312 -12.742188 L 0.914062 -12.742188 L 0.914062 0 L 3.5625 0 L 3.5625 -5.601562 L 3.480469 -8.152344 L 5.75 0 L 8.445312 0 Z M 10.714844 -8.152344 "/></g></g></g><g fill="#ffffff" fill-opacity="1"><g transform="translate(206.211349, 261.649377)"><g><path d="M 0.914062 -12.742188 L 0.914062 0 L 8.707031 0 L 8.707031 -2.285156 L 3.5625 -2.285156 L 3.5625 -5.359375 L 7.890625 -5.359375 L 7.890625 -7.644531 L 3.5625 -7.644531 L 3.5625 -10.453125 L 8.707031 -10.453125 L 8.707031 -12.742188 Z M 0.914062 -12.742188 "/></g></g></g><g fill="#ffffff" fill-opacity="1"><g transform="translate(217.526133, 261.649377)"><g><path d="M 10.191406 -6.042969 L 10.191406 -6.699219 C 10.191406 -11.109375 8.609375 -12.742188 4.820312 -12.742188 L 0.914062 -12.742188 L 0.914062 0 L 4.820312 0 C 8.609375 0 10.191406 -1.632812 10.191406 -6.042969 Z M 3.5625 -2.285156 L 3.5625 -10.453125 L 4.671875 -10.453125 C 6.878906 -10.453125 7.496094 -9.246094 7.496094 -6.699219 L 7.496094 -6.042969 C 7.496094 -3.496094 6.878906 -2.285156 4.671875 -2.285156 Z M 3.5625 -2.285156 "/></g></g></g><g fill="#ffffff" fill-opacity="1"><g transform="translate(230.310098, 261.649377)"><g><path d="M 3.644531 -12.742188 L 0.996094 -12.742188 L 0.996094 0 L 3.644531 0 Z M 3.644531 -12.742188 "/></g></g></g><g fill="#ffffff" fill-opacity="1"><g transform="translate(236.890839, 261.649377)"><g><path d="M 3.414062 -12.773438 L 0.230469 0 L 3.070312 0 L 3.675781 -2.746094 L 6.796875 -2.746094 L 7.417969 0 L 10.242188 0 L 7.058594 -12.773438 Z M 5.226562 -9.71875 L 6.273438 -5.03125 L 4.183594 -5.03125 Z M 5.226562 -9.71875 "/></g></g></g></svg>